HIERARCHY
ROOT Pelvis
{
	OFFSET 0.000000 0.000000 0.000000
	CHANNELS 6 Xposition Yposition Zposition Xrotation Yrotation Zrotation
	JOINT LeftUpLeg_virtual
	{
		OFFSET 0.000000 0.000000 0.000000
		CHANNELS 3 Xrotation Yrotation Zrotation
		JOINT LeftUpLeg
		{
			OFFSET 18.735201 -5.666702 -4.541200
			CHANNELS 3 Xrotation Yrotation Zrotation
			JOINT LeftLeg
			{
				OFFSET -0.021200 -31.938179 0.493100
				CHANNELS 3 Xrotation Yrotation Zrotation
				JOINT LeftFoot
				{
					OFFSET 0.021200 -31.938179 -4.336299
					CHANNELS 3 Xrotation Yrotation Zrotation
					JOINT LeftToeBase
					{
						OFFSET 0.943001 -26.722000 15.023500
						CHANNELS 3 Xrotation Yrotation Zrotation
						End Site
						{
							OFFSET 0 0 0
						}
					}
				}
			}
		}
	}
	JOINT RightUpLeg_virtual
	{
		OFFSET 0.000000 0.000000 0.000000
		CHANNELS 3 Xrotation Yrotation Zrotation
		JOINT RightUpLeg
		{
			OFFSET -18.735201 -5.666702 -4.541200
			CHANNELS 3 Xrotation Yrotation Zrotation
			JOINT RightLeg
			{
				OFFSET 0.018946 -31.938133 0.493100
				CHANNELS 3 Xrotation Yrotation Zrotation
				JOINT RightFoot
				{
					OFFSET -0.018946 -31.938126 -4.336299
					CHANNELS 3 Xrotation Yrotation Zrotation
					JOINT RightToeBase
					{
						OFFSET -0.943001 -26.722004 15.023500
						CHANNELS 3 Xrotation Yrotation Zrotation
						End Site
						{
							OFFSET 0 0 0
						}
					}
				}
			}
		}
	}
	JOINT Hips_virtual
	{
		OFFSET 0.000000 0.000000 0.000000
		CHANNELS 3 Xrotation Yrotation Zrotation
		JOINT Hips
		{
			OFFSET -0.000000 -0.000000 -0.000000
			CHANNELS 3 Xrotation Yrotation Zrotation
			JOINT Spine
			{
				OFFSET 0.000000 10.199997 -0.299500
				CHANNELS 3 Xrotation Yrotation Zrotation
				JOINT Spine1
				{
					OFFSET 0.000000 11.900002 -1.516600
					CHANNELS 3 Xrotation Yrotation Zrotation
					JOINT Spine2
					{
						OFFSET 0.000000 13.600006 -2.842500
						CHANNELS 3 Xrotation Yrotation Zrotation
						JOINT Neck_virtual
						{
							OFFSET 0.000000 0.000000 0.000000
							CHANNELS 3 Xrotation Yrotation Zrotation
							JOINT Neck
							{
								OFFSET 0.000000 9.624100 -2.890100
								CHANNELS 3 Xrotation Yrotation Zrotation
								JOINT Head
								{
									OFFSET 0.000000 14.068802 -1.351900
									CHANNELS 3 Xrotation Yrotation Zrotation
									End Site
									{
										OFFSET 0 0 0
									}
								}
							}
						}
						JOINT LeftShoulder_virtual
						{
							OFFSET 0.000000 0.000000 0.000000
							CHANNELS 3 Xrotation Yrotation Zrotation
							JOINT LeftShoulder
							{
								OFFSET 15.263000 10.923401 -0.547700
								CHANNELS 3 Xrotation Yrotation Zrotation
								JOINT LeftArm
								{
									OFFSET 25.438599 -2.830597 -13.032500
									CHANNELS 3 Xrotation Yrotation Zrotation
									JOINT LeftForeArm
									{
										OFFSET 29.960503 0.000000 0.000000
										CHANNELS 3 Xrotation Yrotation Zrotation
										JOINT LeftHand
										{
											OFFSET 27.849251 0.000000 0.000000
											CHANNELS 3 Xrotation Yrotation Zrotation
											End Site
											{
												OFFSET 0 0 0
											}
										}
									}
								}
							}
						}
						JOINT RightShoulder_virtual
						{
							OFFSET 0.000000 0.000000 0.000000
							CHANNELS 3 Xrotation Yrotation Zrotation
							JOINT RightShoulder
							{
								OFFSET -15.263000 10.923401 -0.547700
								CHANNELS 3 Xrotation Yrotation Zrotation
								JOINT RightArm
								{
									OFFSET -25.438599 -2.830597 -13.032500
									CHANNELS 3 Xrotation Yrotation Zrotation
									JOINT RightForeArm
									{
										OFFSET -29.960503 0.000000 0.000000
										CHANNELS 3 Xrotation Yrotation Zrotation
										JOINT RightHand
										{
											OFFSET -27.849251 0.000000 0.000000
											CHANNELS 3 Xrotation Yrotation Zrotation
											End Site
											{
												OFFSET 0 0 0
											}
										}
									}
								}
							}
						}
					}
				}
			}
		}
	}
}
MOTION
Frames: 13
Frame Time: 0.03333333
15.907316 86.754715 -23.376728 0.000000 0.000000 0.000000 22.347650 -66.444128 22.113257 -43.038668 -4.256733 24.551084 21.044171 13.394401 -11.343479 -25.704850 19.285526 -18.242095 0.000000 0.000000 0.000000 25.851363 -36.042058 35.129268 -32.413595 -18.616720 -8.610048 45.298935 -1.764108 -1.100738 -5.049112 -4.133077 8.073666 0.000000 0.000000 0.000000 10.664639 -69.426715 19.530176 52.623438 -47.090736 48.030727 14.302981 -0.519284 4.605840 3.325085 -0.257278 3.854463 0.000000 0.000000 0.000000 -8.717164 -2.050468 1.572851 -4.043510 -0.345419 -0.863009 0.000000 0.000000 0.000000 -5.017262 -1.565777 5.332257 -1.143571 -13.335449 14.095922 -59.302803 -16.057519 -35.542815 -18.501381 -60.408426 -13.407312 0.000000 0.000000 0.000000 -0.348915 -1.342817 1.107781 4.722398 5.059912 2.961807 7.525709 6.017337 57.487646 5.666600 38.034759 4.643095 0.000000 0.000000 0.000000 
15.987907 86.855530 -23.432827 0.000000 0.000000 0.000000 21.885466 -66.462686 21.565701 -43.142033 -4.185388 24.340451 21.001650 13.474445 -11.346379 -25.695267 19.375003 -18.243609 0.000000 0.000000 0.000000 25.659469 -36.160166 35.173832 -32.641641 -18.629220 -8.570490 45.144555 -1.717768 -1.158275 -5.182511 -4.066641 8.011819 0.000000 0.000000 0.000000 10.420057 -68.898570 19.244830 52.468427 -47.465307 48.177515 14.216562 -0.528321 4.673962 3.305830 -0.274872 3.896187 0.000000 0.000000 0.000000 -8.661032 -2.286857 1.639532 -4.067738 -0.531007 -0.797774 0.000000 0.000000 0.000000 -4.867255 -1.546642 5.359502 -1.109236 -13.288413 14.025110 -59.254890 -16.037639 -35.407400 -18.528251 -60.459523 -13.188684 0.000000 0.000000 0.000000 -0.271678 -1.375152 1.138241 4.619023 4.850206 3.154808 7.131464 6.005889 57.963014 5.422717 38.164563 4.947741 0.000000 0.000000 0.000000 
16.056438 86.915405 -23.477360 0.000000 0.000000 0.000000 21.435883 -66.545577 21.036315 -43.273596 -4.129013 24.118928 20.963270 13.563512 -11.346799 -25.687698 19.469410 -18.232876 0.000000 0.000000 0.000000 25.500998 -36.610586 35.211965 -33.023073 -18.670602 -8.686915 44.987444 -1.760011 -1.256080 -5.326660 -4.072276 7.813433 0.000000 0.000000 0.000000 10.200713 -68.398594 18.981873 52.511000 -47.813455 48.495221 14.120420 -0.536282 4.709873 3.281862 -0.290544 3.917863 0.000000 0.000000 0.000000 -8.579062 -2.452415 1.667688 -4.077766 -0.673219 -0.752057 0.000000 0.000000 0.000000 -4.794215 -1.535183 5.357559 -1.152370 -13.270386 13.860850 -59.245156 -15.919414 -35.345112 -18.591362 -60.510162 -13.027649 0.000000 0.000000 0.000000 -0.191092 -1.406804 1.151030 4.540242 4.622829 3.304534 6.810944 6.055583 58.354534 5.217601 38.360702 5.204860 0.000000 0.000000 0.000000 
16.107727 86.949951 -23.517944 0.000000 0.000000 0.000000 20.943240 -66.664702 20.478531 -43.448599 -4.082189 23.887070 20.916916 13.662007 -11.350447 -25.689240 19.571031 -18.218358 0.000000 0.000000 0.000000 25.340753 -36.763254 35.279587 -33.260320 -18.693099 -8.654114 44.910533 -1.667415 -1.301566 -5.401012 -3.958688 7.809361 0.000000 0.000000 0.000000 10.013679 -67.929482 18.749062 52.717108 -48.156375 48.905838 14.006985 -0.543077 4.723248 3.248831 -0.303885 3.924905 0.000000 0.000000 0.000000 -8.487025 -2.580233 1.675265 -4.078963 -0.791178 -0.717207 0.000000 0.000000 0.000000 -4.734259 -1.528335 5.338790 -1.197892 -13.286640 13.654385 -59.309504 -15.762200 -35.331370 -18.716889 -60.557290 -12.924764 0.000000 0.000000 0.000000 -0.124105 -1.440165 1.151928 4.462765 4.383099 3.424797 6.525914 6.140591 58.712306 5.039572 38.549748 5.446734 0.000000 0.000000 0.000000 
16.154715 86.981735 -23.585155 0.000000 0.000000 0.000000 20.457530 -66.778684 19.922834 -43.613466 -4.033425 23.656299 20.931243 13.760765 -11.346786 -25.647096 19.668993 -18.189082 0.000000 0.000000 0.000000 25.179677 -36.922801 35.331397 -33.487222 -18.715517 -8.625820 44.823704 -1.568642 -1.349856 -5.479630 -3.837635 7.804414 0.000000 0.000000 0.000000 9.858579 -67.492828 18.544812 52.913394 -48.493882 49.260776 13.878214 -0.548161 4.716913 3.207836 -0.315381 3.919189 0.000000 0.000000 0.000000 -8.383971 -2.687155 1.673064 -4.074004 -0.893552 -0.688636 0.000000 0.000000 0.000000 -4.705835 -1.529584 5.299919 -1.260083 -13.350391 13.388457 -59.501739 -15.553603 -35.399989 -19.005876 -60.603299 -12.964286 0.000000 0.000000 0.000000 -0.073572 -1.473627 1.143659 4.372581 4.149953 3.515633 6.243127 6.257340 59.054287 4.884057 38.762813 5.675664 0.000000 0.000000 0.000000 
16.187107 87.016350 -23.672607 0.000000 0.000000 0.000000 20.039123 -66.885461 19.415197 -43.737451 -3.980160 23.433565 20.976833 13.861153 -11.343437 -25.584579 19.767302 -18.153917 0.000000 0.000000 0.000000 25.039390 -37.101540 35.383986 -33.703691 -18.742394 -8.604340 44.742138 -1.461235 -1.390261 -5.554027 -3.711351 7.819515 0.000000 0.000000 0.000000 9.759837 -67.097695 18.390161 53.088772 -48.803221 49.627393 13.770355 -0.552569 4.708288 3.178764 -0.326539 3.910491 0.000000 0.000000 0.000000 -8.276782 -2.788744 1.672463 -4.069460 -0.988063 -0.661825 0.000000 0.000000 0.000000 -4.691099 -1.532805 5.259315 -1.328670 -13.401191 13.125963 -59.723932 -15.304255 -35.438747 -19.345783 -60.616119 -13.038321 0.000000 0.000000 0.000000 -0.033630 -1.508368 1.130656 4.276449 3.899647 3.584231 5.998838 6.361989 59.374780 4.745359 39.024299 5.883247 0.000000 0.000000 0.000000 
16.186993 87.059341 -23.739529 0.000000 0.000000 0.000000 19.662603 -66.981234 18.945020 -43.835256 -3.928003 23.221854 21.012558 13.954746 -11.335394 -25.530750 19.856603 -18.112994 0.000000 0.000000 0.000000 24.935945 -37.308071 35.437999 -33.884415 -18.781833 -8.586545 44.661729 -1.351063 -1.421936 -5.629330 -3.586855 7.851734 0.000000 0.000000 0.000000 9.699173 -66.743263 18.271200 53.266337 -49.066921 49.886472 13.668271 -0.554856 4.693203 3.152309 -0.336651 3.897853 0.000000 0.000000 0.000000 -8.169333 -2.884007 1.675507 -4.063384 -1.075088 -0.636255 0.000000 0.000000 0.000000 -4.680209 -1.537548 5.213988 -1.395309 -13.452828 12.857756 -59.971124 -15.024263 -35.475456 -19.713823 -60.601263 -13.148212 0.000000 0.000000 0.000000 -0.005419 -1.537954 1.111962 4.180111 3.665974 3.621739 5.733437 6.498724 59.654483 4.607698 39.377451 6.063341 0.000000 0.000000 0.000000 
16.179014 87.090668 -23.783684 0.000000 0.000000 0.000000 19.366880 -67.136962 18.577980 -43.932921 -3.906037 23.032359 21.054893 14.040392 -11.323112 -25.478089 19.934372 -18.065219 0.000000 0.000000 0.000000 24.888760 -37.608224 35.503115 -34.048657 -18.840894 -8.598933 44.592625 -1.246051 -1.443571 -5.700979 -3.472684 7.897911 0.000000 0.000000 0.000000 9.637215 -66.415571 18.152073 53.071588 -49.422757 49.774416 13.553949 -0.546770 4.657636 3.116865 -0.340451 3.874194 0.000000 0.000000 0.000000 -8.063891 -2.957296 1.673928 -4.055366 -1.149461 -0.615953 0.000000 0.000000 0.000000 -4.680996 -1.536864 5.163763 -1.467692 -13.489156 12.584900 -60.179383 -14.708531 -35.488953 -20.049638 -60.555296 -13.251393 0.000000 0.000000 0.000000 0.014813 -1.557231 1.086931 4.088825 3.455238 3.628878 5.440054 6.675969 59.900158 4.470409 39.803474 6.222028 0.000000 0.000000 0.000000 
16.168192 87.123482 -23.805374 0.000000 0.000000 0.000000 19.159825 -67.286762 18.300510 -43.994396 -3.891915 22.870704 21.097382 14.119619 -11.307190 -25.426825 20.004499 -18.012949 0.000000 0.000000 0.000000 24.863429 -37.881182 35.571065 -34.175009 -18.901305 -8.598215 44.528561 -1.138610 -1.455377 -5.768728 -3.360904 7.962773 0.000000 0.000000 0.000000 9.588768 -66.120206 18.048814 52.945311 -49.917819 49.829549 13.439377 -0.533838 4.611537 3.077239 -0.340550 3.845143 0.000000 0.000000 0.000000 -7.965897 -3.020387 1.664700 -4.050759 -1.219659 -0.599330 0.000000 0.000000 0.000000 -4.677696 -1.532078 5.116705 -1.528687 -13.514844 12.338196 -60.301309 -14.359571 -35.470491 -20.320308 -60.486844 -13.307340 0.000000 0.000000 0.000000 0.025591 -1.574349 1.058080 3.993495 3.228865 3.639643 5.139130 6.828636 60.131906 4.325230 40.202169 6.377886 0.000000 0.000000 0.000000 
16.166809 87.150108 -23.801170 0.000000 0.000000 0.000000 19.024525 -67.424902 18.097165 -44.022338 -3.884865 22.732784 21.138285 14.195387 -11.286217 -25.379800 20.068682 -17.953378 0.000000 0.000000 0.000000 24.868193 -38.187615 35.669526 -34.297474 -18.976603 -8.589700 44.439980 -1.044118 -1.461258 -5.860225 -3.267879 8.027565 0.000000 0.000000 0.000000 9.544751 -65.858924 17.955661 52.832729 -50.406564 49.899286 13.361741 -0.518599 4.577269 3.054090 -0.339066 3.822730 0.000000 0.000000 0.000000 -7.874958 -3.076227 1.651209 -4.047185 -1.283594 -0.586184 0.000000 0.000000 0.000000 -4.677744 -1.525846 5.072939 -1.584134 -13.536510 12.114867 -60.420625 -14.001555 -35.466536 -20.590150 -60.404199 -13.376499 0.000000 0.000000 0.000000 0.030835 -1.591305 1.029351 3.901692 3.005722 3.653382 4.837452 6.940993 60.357132 4.171427 40.552776 6.535761 0.000000 0.000000 0.000000 
16.157234 87.187561 -23.762367 0.000000 0.000000 0.000000 18.962439 -67.544048 17.960635 -44.009446 -3.879403 22.613964 21.191707 14.265205 -11.263896 -25.323538 20.126706 -17.893026 0.000000 0.000000 0.000000 24.883697 -38.451947 35.748732 -34.378173 -19.045276 -8.579056 44.357168 -0.954862 -1.466593 -5.945203 -3.180094 8.088898 0.000000 0.000000 0.000000 9.470542 -65.603134 17.843000 52.640842 -50.848484 49.898521 13.295504 -0.498092 4.541842 3.034535 -0.333749 3.799749 0.000000 0.000000 0.000000 -7.795746 -3.122803 1.635531 -4.045488 -1.339779 -0.575722 0.000000 0.000000 0.000000 -4.683341 -1.518965 5.029838 -1.638036 -13.559093 11.903592 -60.546997 -13.628656 -35.483506 -20.859338 -60.290210 -13.462571 0.000000 0.000000 0.000000 0.031410 -1.606704 1.001717 3.815085 2.795504 3.668649 4.540101 7.046756 60.564995 4.019969 40.893883 6.684579 0.000000 0.000000 0.000000 
16.159901 87.227798 -23.722218 0.000000 0.000000 0.000000 18.933377 -67.672421 17.863272 -43.988040 -3.883061 22.504681 21.237401 14.331482 -11.236024 -25.273387 20.179775 -17.825911 0.000000 0.000000 0.000000 24.927158 -38.752233 35.843760 -34.445709 -19.125986 -8.567813 44.254418 -0.875689 -1.467477 -6.044487 -3.106503 8.149197 0.000000 0.000000 0.000000 9.379860 -65.352630 17.719898 52.372388 -51.252667 49.827371 13.226246 -0.478396 4.505746 3.011545 -0.327546 3.776499 0.000000 0.000000 0.000000 -7.732191 -3.162759 1.619017 -4.048902 -1.389897 -0.567182 0.000000 0.000000 0.000000 -4.695357 -1.515118 4.986932 -1.692088 -13.593322 11.699849 -60.702876 -13.247417 -35.534807 -21.162276 -60.170292 -13.594228 0.000000 0.000000 0.000000 0.028648 -1.621951 0.977541 3.731636 2.594404 3.692446 4.237566 7.126210 60.766615 3.860733 41.207006 6.834317 0.000000 0.000000 0.000000 
16.166904 87.268860 -23.673435 0.000000 0.000000 0.000000 18.932427 -67.796150 17.796225 -43.949826 -3.891790 22.403463 21.283838 14.387145 -11.204420 -25.221240 20.222414 -17.757920 0.000000 0.000000 0.000000 24.960134 -39.025474 35.902032 -34.488005 -19.197708 -8.563514 44.146798 -0.801795 -1.469650 -6.143301 -3.037716 8.202245 0.000000 0.000000 0.000000 9.267071 -65.108334 17.580234 52.031145 -51.631849 49.675857 13.159683 -0.458906 4.465528 2.989106 -0.319896 3.751060 0.000000 0.000000 0.000000 -7.686294 -3.196074 1.594924 -4.058148 -1.434073 -0.564045 0.000000 0.000000 0.000000 -4.727246 -1.517442 4.942398 -1.759510 -13.648211 11.493153 -60.941707 -12.839092 -35.635843 -21.558667 -60.064923 -13.816896 0.000000 0.000000 0.000000 0.023711 -1.636343 0.956026 3.652502 2.406136 3.720674 3.925905 7.177947 60.954268 3.692952 41.490776 6.981027 0.000000 0.000000 0.000000 
